<?xml version="1.0" encoding="UTF-8"?>
<svg id="a" data-name="Camada 1" xmlns="http://www.w3.org/2000/svg" viewBox="0 0 70 70">
  <circle cx="35" cy="35" r="28.92" fill="none" stroke="#ff5031"/>
  <path d="M34.9,33.27c1.96,0,3.84-.78,5.22-2.16,1.38-1.38,2.17-3.26,2.17-5.22s-.79-3.83-2.17-5.22c-1.38-1.38-3.26-2.16-5.22-2.16-1.96,0-3.83.78-5.21,2.16-1.39,1.38-2.17,3.26-2.17,5.22s.79,3.83,2.17,5.21c1.38,1.38,3.26,2.16,5.21,2.16h0ZM34.9,20.19h0c1.53,0,2.98.6,4.05,1.67,1.07,1.07,1.68,2.52,1.68,4.04s-.61,2.97-1.68,4.04c-1.07,1.07-2.52,1.67-4.05,1.67s-2.97-.6-4.03-1.67c-1.07-1.07-1.68-2.52-1.68-4.04s.61-2.97,1.68-4.04c1.07-1.07,2.52-1.67,4.03-1.67h0Z" fill="#ff5031"/>
  <path d="M25.55,51.48h18.7c.77,0,1.5-.31,2.05-.85.55-.55.86-1.29.86-2.06v-.76c-.09-3.2-1.42-6.23-3.71-8.46-2.28-2.23-5.35-3.48-8.56-3.48s-6.26,1.25-8.56,3.48c-2.28,2.23-3.62,5.27-3.69,8.46v.76c0,.77.3,1.51.85,2.06.55.55,1.29.85,2.06.85h0ZM24.31,47.81c.1-3.72,2.14-7.1,5.38-8.93,3.23-1.83,7.19-1.83,10.43,0,3.23,1.83,5.28,5.22,5.38,8.93v.76c0,.33-.13.65-.37.88-.24.23-.55.37-.88.37h-18.7c-.34,0-.65-.13-.89-.37-.22-.23-.36-.55-.36-.88v-.76Z" fill="#ff5031"/>
</svg>