<?xml version="1.0" encoding="UTF-8"?>
<svg id="a" data-name="Camada 1" xmlns="http://www.w3.org/2000/svg" viewBox="0 0 70 70">
  <path d="M54.99,62.56H15.44c-2.11,0-3.84-1.72-3.84-3.84v-25.94h47.29v25.88c0,2.15-1.75,3.9-3.9,3.9ZM14.06,35.23v23.49c0,.76.62,1.38,1.38,1.38h39.55c.8,0,1.44-.65,1.44-1.44v-23.42H14.06Z" fill="#2b6222"/>
  <path d="M62,35.23h-4.33v-2.46h1.88v-10.26c0-.86-.7-1.57-1.57-1.57H12.52c-1.14,0-2.06.93-2.06,2.06v9.76h2.37v2.46h-4.83v-12.22c0-2.49,2.03-4.52,4.52-4.52h45.45c2.22,0,4.02,1.8,4.02,4.02v12.72Z" fill="#2b6222"/>
  <path d="M36.23,61.34h-2.46s.25-41.31.25-41.31l-3.58-6.71c-1.13-2.11-3.31-3.42-5.7-3.42-1.81,0-3.41,1.42-3.97,3.46v6.36h-2.46l.04-6.82c.8-3.22,3.41-5.47,6.35-5.47,3.34,0,6.36,1.81,7.91,4.72l3.87,7.26v.31s-.25,41.6-.25,41.6Z" fill="#2b6222"/>
  <path d="M34.27,61.34l-.25-41.91,3.87-7.26c1.55-2.91,4.57-4.72,7.87-4.72,2.98,0,5.59,2.25,6.39,5.46l.04.3v6.52h-2.46v-6.36c-.56-2.04-2.16-3.46-3.93-3.46-2.44,0-4.62,1.31-5.74,3.42l-3.58,6.71.25,41.29h-2.46Z" fill="#2b6222"/>
</svg>