<?xml version="1.0" encoding="UTF-8"?>
<svg id="a" data-name="Camada 1" xmlns="http://www.w3.org/2000/svg" viewBox="0 0 70 70">
  <path d="M48.06,19.14c-1.6,0-2.88,1.3-2.88,2.88s1.3,2.9,2.88,2.9,2.88-1.3,2.88-2.9-1.3-2.88-2.88-2.88Z" fill="#fff"/>
  <path d="M35.21,22.84c-6.7,0-12.16,5.45-12.16,12.16s5.45,12.16,12.16,12.16,12.16-5.45,12.16-12.16-5.45-12.16-12.16-12.16ZM35.21,42.79c-4.29,0-7.79-3.49-7.79-7.79s3.48-7.79,7.79-7.79,7.79,3.49,7.79,7.79-3.48,7.79-7.79,7.79Z" fill="#fff"/>
  <path d="M44.86,59.68h-19.71c-8.17,0-14.82-6.65-14.82-14.82v-19.71c0-8.17,6.65-14.82,14.82-14.82h19.69c8.17,0,14.82,6.65,14.82,14.82v19.71c0,8.17-6.65,14.82-14.82,14.82h.02ZM25.15,14.97c-5.62,0-10.17,4.57-10.17,10.17v19.71c0,5.62,4.57,10.17,10.17,10.17h19.69c5.62,0,10.19-4.57,10.19-10.17v-19.71c0-5.62-4.57-10.17-10.19-10.17h-19.69Z" fill="#fff"/>
</svg>