<?xml version="1.0" encoding="UTF-8"?>
<svg id="a" data-name="Camada 1" xmlns="http://www.w3.org/2000/svg" viewBox="0 0 70 70">
  <path d="M9.59,60.49l3.65-13.64c-2.07-3.74-3.15-7.92-3.15-12.16,0-13.88,11.3-25.18,25.16-25.18s25.18,11.3,25.18,25.18-11.3,25.18-25.18,25.18c-4.17,0-8.28-1.05-11.97-3.05l-13.71,3.67h.02ZM23.97,51.7l.86.52c3.17,1.89,6.77,2.89,10.42,2.89,11.26,0,20.41-9.16,20.41-20.41s-9.14-20.42-20.41-20.42-20.41,9.14-20.41,20.41c0,3.72,1.03,7.37,2.98,10.59l.53.86-2.03,7.61,7.65-2.05Z" fill="#fff"/>
  <path d="M44.64,38.19c-1.03-.62-2.38-1.31-3.6-.81-.93.38-1.53,1.84-2.14,2.6-.31.38-.69.45-1.15.26-3.51-1.39-6.2-3.75-8.15-6.97-.33-.5-.28-.9.12-1.36.59-.69,1.33-1.48,1.48-2.41.15-.93-.28-2.01-.65-2.84-.5-1.05-1.03-2.57-2.1-3.17-.98-.55-2.26-.24-3.12.46-1.5,1.22-2.22,3.13-2.2,5.03,0,.53.07,1.07.19,1.6.31,1.26.88,2.41,1.53,3.53.48.84,1.02,1.65,1.6,2.43,1.88,2.55,4.22,4.77,6.92,6.42,1.36.83,2.81,1.55,4.32,2.05,1.69.55,3.2,1.14,5.03.79,1.91-.36,3.81-1.55,4.56-3.39.22-.55.34-1.15.21-1.72-.26-1.19-1.88-1.89-2.84-2.48l-.02-.02Z" fill="#fff" fill-rule="evenodd"/>
</svg>